<svg width="70" height="47" viewBox="0 0 70 47" fill="none" xmlns="http://www.w3.org/2000/svg">
<path opacity="0.2" fill-rule="evenodd" clip-rule="evenodd" d="M61.95 26.9289C61.976 33.8978 59.2864 40.6035 54.45 45.6276H15.55C12.4869 42.4531 10.2509 38.5764 9.03803 34.3377C7.82518 30.099 7.67262 25.6279 8.59373 21.3166C9.51483 17.0053 11.4815 12.9856 14.321 9.61027C17.1606 6.23494 20.7863 3.60712 24.8801 1.95738C28.9739 0.307645 33.4105 -0.313581 37.8008 0.148212C42.191 0.610005 46.4007 2.14071 50.0604 4.606C53.7201 7.07129 56.7179 10.3958 58.7909 14.2879C60.8639 18.1799 61.9487 22.5206 61.95 26.9289Z" fill="#491369"/>
<path d="M70 46H0" stroke="#1A1A1A" stroke-miterlimit="10"/>
<g clip-path="url(#clip0)">
<rect x="20.5176" y="10.8977" width="27.9643" height="24.3508" rx="1" fill="white"/>
<path d="M46.5833 10.0859H46.1V7.61552C46.1 6.79832 45.4494 6.1333 44.65 6.1333H43.6833C42.8839 6.1333 42.2333 6.79832 42.2333 7.61552V10.0859H26.7667V7.61552C26.7667 6.79832 26.1161 6.1333 25.3167 6.1333H24.35C23.5506 6.1333 22.9 6.79832 22.9 7.61552V10.0859H22.4167C21.0841 10.0859 20 11.1941 20 12.5563V33.3074C20 34.6695 21.0841 35.7777 22.4167 35.7777H46.5833C47.9159 35.7777 49 34.6695 49 33.3074V12.5563C49 11.1941 47.9159 10.0859 46.5833 10.0859ZM43.2 10.58V7.61552C43.2 7.34279 43.4165 7.12145 43.6833 7.12145H44.65C44.9168 7.12145 45.1333 7.34279 45.1333 7.61552V10.58V12.5563C45.1333 12.829 44.9168 13.0503 44.65 13.0503H43.6833C43.4165 13.0503 43.2 12.829 43.2 12.5563V10.58ZM23.8667 10.58V7.61552C23.8667 7.34279 24.0832 7.12145 24.35 7.12145H25.3167C25.5835 7.12145 25.8 7.34279 25.8 7.61552V10.58V12.5563C25.8 12.829 25.5835 13.0503 25.3167 13.0503H24.35C24.0832 13.0503 23.8667 12.829 23.8667 12.5563V10.58ZM48.0333 33.3074C48.0333 34.1246 47.3828 34.7896 46.5833 34.7896H22.4167C21.6172 34.7896 20.9667 34.1246 20.9667 33.3074V18.9792H48.0333V33.3074ZM48.0333 17.9911H20.9667V12.5563C20.9667 11.7391 21.6172 11.074 22.4167 11.074H22.9V12.5563C22.9 13.3735 23.5506 14.0385 24.35 14.0385H25.3167C26.1161 14.0385 26.7667 13.3735 26.7667 12.5563V11.074H42.2333V12.5563C42.2333 13.3735 42.8839 14.0385 43.6833 14.0385H44.65C45.4494 14.0385 46.1 13.3735 46.1 12.5563V11.074H46.5833C47.3828 11.074 48.0333 11.7391 48.0333 12.5563V17.9911Z" fill="#1A1A1A"/>
<path d="M39.8159 12.5562H29.1826C28.9153 12.5562 28.6992 12.777 28.6992 13.0502V16.0147C28.6992 16.2879 28.9153 16.5087 29.1826 16.5087H39.8159C40.0832 16.5087 40.2992 16.2879 40.2992 16.0147V13.0502C40.2992 12.777 40.0832 12.5562 39.8159 12.5562ZM39.3326 15.5206H29.6659V13.5443H39.3326V15.5206Z" fill="#1A1A1A"/>
<path d="M26.2837 20.4624H23.3837C23.1164 20.4624 22.9004 20.6833 22.9004 20.9565V23.4268C22.9004 23.7001 23.1164 23.9209 23.3837 23.9209H26.2837C26.551 23.9209 26.7671 23.7001 26.7671 23.4268V20.9565C26.7671 20.6833 26.551 20.4624 26.2837 20.4624ZM25.8004 22.9328H23.8671V21.4506H25.8004V22.9328Z" fill="#491369" fill-opacity="0.4"/>
<path d="M45.3833 20.4443H42.4833C42.216 20.4443 42 20.6652 42 20.9384V23.4088C42 23.682 42.216 23.9029 42.4833 23.9029H45.3833C45.6506 23.9029 45.8667 23.682 45.8667 23.4088V20.9384C45.8667 20.6652 45.6506 20.4443 45.3833 20.4443ZM44.9 22.9147H42.9667V21.4325H44.9V22.9147Z" fill="#491369" fill-opacity="0.4"/>
<path d="M26.2837 25.4021H23.3837C23.1164 25.4021 22.9004 25.623 22.9004 25.8962V28.3665C22.9004 28.6398 23.1164 28.8606 23.3837 28.8606H26.2837C26.551 28.8606 26.7671 28.6398 26.7671 28.3665V25.8962C26.7671 25.623 26.551 25.4021 26.2837 25.4021ZM25.8004 27.8725H23.8671V26.3902H25.8004V27.8725Z" fill="#491369" fill-opacity="0.4"/>
<path d="M26.2837 30.343H23.3837C23.1164 30.343 22.9004 30.5639 22.9004 30.8371V33.3075C22.9004 33.5807 23.1164 33.8015 23.3837 33.8015H26.2837C26.551 33.8015 26.7671 33.5807 26.7671 33.3075V30.8371C26.7671 30.5639 26.551 30.343 26.2837 30.343ZM25.8004 32.8134H23.8671V31.3312H25.8004V32.8134Z" fill="#491369" fill-opacity="0.4"/>
<path d="M35 29.6443C37.2091 29.6443 39 27.8137 39 25.5554C39 23.2972 37.2091 21.4666 35 21.4666C32.7909 21.4666 31 23.2972 31 25.5554C31 27.8137 32.7909 29.6443 35 29.6443Z" fill="#491369" stroke="#491369" stroke-width="0.3"/>
<path d="M37.0916 23.8704C37.0504 23.8282 37.0014 23.7947 36.9474 23.7719C36.8935 23.7491 36.8357 23.7373 36.7774 23.7373C36.719 23.7373 36.6612 23.7491 36.6073 23.7719C36.5533 23.7947 36.5044 23.8282 36.4631 23.8704L34.1107 26.2751L33.5361 25.6877C33.4948 25.6455 33.4458 25.612 33.3919 25.5892C33.338 25.5663 33.2802 25.5546 33.2218 25.5546C33.1634 25.5546 33.1056 25.5663 33.0517 25.5892C32.9978 25.612 32.9488 25.6455 32.9075 25.6877C32.8663 25.7299 32.8335 25.7799 32.8112 25.8351C32.7888 25.8902 32.7773 25.9493 32.7773 26.0089C32.7773 26.0686 32.7888 26.1277 32.8112 26.1828C32.8335 26.2379 32.8663 26.288 32.9075 26.3302L33.7964 27.2388C33.8377 27.281 33.8867 27.3145 33.9406 27.3373C33.9945 27.3602 34.0523 27.3719 34.1107 27.3719C34.1691 27.3719 34.2269 27.3602 34.2808 27.3373C34.3347 27.3145 34.3837 27.281 34.425 27.2388L37.0916 24.5129C37.1329 24.4707 37.1657 24.4206 37.188 24.3655C37.2103 24.3104 37.2218 24.2513 37.2218 24.1916C37.2218 24.132 37.2103 24.0729 37.188 24.0178C37.1657 23.9627 37.1329 23.9126 37.0916 23.8704Z" fill="white"/>
<path d="M45.3833 30.3433H42.4833C42.2161 30.3433 42 30.5641 42 30.8373V33.3077C42 33.5809 42.2161 33.8018 42.4833 33.8018H45.3833C45.6506 33.8018 45.8667 33.5809 45.8667 33.3077V30.8373C45.8667 30.5641 45.6506 30.3433 45.3833 30.3433ZM44.9 32.8136H42.9667V31.3314H44.9V32.8136Z" fill="#491369" fill-opacity="0.4"/>
<path d="M45.3833 25.5554H42.4833C42.216 25.5554 42 25.7763 42 26.0495V28.5199C42 28.7931 42.216 29.0139 42.4833 29.0139H45.3833C45.6506 29.0139 45.8667 28.7931 45.8667 28.5199V26.0495C45.8667 25.7763 45.6506 25.5554 45.3833 25.5554ZM44.9 28.0258H42.9667V26.5436H44.9V28.0258Z" fill="#491369" fill-opacity="0.4"/>
</g>
<path d="M39.2711 34.126C39.2711 33.8895 39.3584 33.6627 39.5138 33.4955C39.6692 33.3283 39.88 33.2344 40.0997 33.2344C40.3195 33.2344 40.5302 33.3283 40.6856 33.4955C40.841 33.6627 40.9283 33.8895 40.9283 34.126V39.7142L40.0997 42.166V45.2705H33.8854V42.0492L32.6426 39.7144V37.0397C32.6426 35.8087 33.1557 34.8108 34.2997 34.8108V29.2224C34.2997 28.9859 34.387 28.7591 34.5424 28.5919C34.6978 28.4247 34.9085 28.3308 35.1283 28.3308C35.348 28.3308 35.5588 28.4247 35.7142 28.5919C35.8696 28.7591 35.9569 28.9859 35.9569 29.2224V32.3428C35.9569 32.1064 36.0442 31.8796 36.1995 31.7124C36.3549 31.5452 36.5657 31.4513 36.7854 31.4513C37.0052 31.4513 37.2159 31.5452 37.3713 31.7124C37.5267 31.8796 37.614 32.1064 37.614 32.3428V32.7886C37.614 32.5522 37.7013 32.3254 37.8567 32.1582C38.0121 31.991 38.2228 31.8971 38.4426 31.8971C38.6623 31.8971 38.8731 31.991 39.0285 32.1582C39.1839 32.3254 39.2711 32.5522 39.2711 32.7886V34.126Z" fill="#F7CCA9" stroke="#1A1A1A" stroke-width="0.8"/>
<path d="M35.75 31.9304H36.3714V34.7959C36.3714 34.9675 36.2323 35.1066 36.0607 35.1066C35.8891 35.1066 35.75 34.9675 35.75 34.7959V31.9304Z" fill="#1A1A1A" stroke="#1A1A1A" stroke-width="0.4"/>
<path d="M33.8867 35.1069H34.5081V36.4902C34.5081 36.6618 34.369 36.8009 34.1974 36.8009C34.0258 36.8009 33.8867 36.6618 33.8867 36.4902V35.1069Z" fill="#1A1A1A" stroke="#1A1A1A" stroke-width="0.4"/>
<path d="M37.2012 31.9304H37.8226V35.8546C37.8226 36.0262 37.6835 36.1653 37.5119 36.1653C37.3403 36.1653 37.2012 36.0262 37.2012 35.8546V31.9304Z" fill="#1A1A1A" stroke="#1A1A1A" stroke-width="0.4"/>
<path d="M39.0664 32.9885H39.4807V37.0163C39.4807 37.1307 39.388 37.2234 39.2735 37.2234C39.1591 37.2234 39.0664 37.1307 39.0664 37.0163V32.9885Z" fill="#1A1A1A" stroke="#1A1A1A" stroke-width="0.4"/>
<defs>
<clipPath id="clip0">
<rect width="29" height="29.6444" fill="white" transform="translate(20 6.1333)"/>
</clipPath>
</defs>
</svg>
