<svg width="70" height="45" viewBox="0 0 70 45" fill="none" xmlns="http://www.w3.org/2000/svg">
<path opacity="0.2" fill-rule="evenodd" clip-rule="evenodd" d="M61.95 25.9683C61.976 32.6886 59.2864 39.1551 54.45 44H15.55C12.4869 40.9387 10.2509 37.2004 9.03803 33.1129C7.82518 29.0254 7.67262 24.7137 8.59373 20.5562C9.51483 16.3987 11.4815 12.5224 14.321 9.26746C17.1606 6.01254 20.7863 3.47845 24.8801 1.88756C28.9739 0.296671 33.4105 -0.302396 37.8008 0.142925C42.191 0.588246 46.4007 2.06434 50.0604 4.4417C53.7201 6.81905 56.7179 10.025 58.7909 13.7782C60.8639 17.5315 61.9487 21.7173 61.95 25.9683V25.9683Z" fill="#491369"/>
<path d="M27.5986 17.3336C27.3867 17.3337 27.1836 17.4179 27.0338 17.5677C26.8841 17.7174 26.7999 17.9206 26.7998 18.1324V30.5828H43.2004V18.1324C43.2004 17.9206 43.1162 17.7174 42.9664 17.5677C42.8166 17.4179 42.6135 17.3337 42.4017 17.3336H27.5986Z" fill="#13BF6D"/>
<path d="M41.3205 12.2591L35.8041 5.87695L28.0432 5.90258L30.2307 8.75414C30.3762 8.94324 30.4779 9.1623 30.5285 9.39549C30.579 9.62868 30.5772 9.87019 30.5231 10.1026C30.2323 11.3662 30.5934 13.2498 31.0699 14.3526C31.4501 15.2329 32.0635 17.9504 32.4087 19.5543C32.4907 19.9337 32.7163 20.2666 33.0381 20.4835C33.36 20.7003 33.7533 20.7843 34.1357 20.7179C34.5181 20.6514 34.86 20.4397 35.0898 20.127C35.3197 19.8142 35.4197 19.4247 35.369 19.0399L34.8552 15.1363C34.8464 15.0686 34.8521 14.9997 34.8719 14.9343C34.8918 14.8689 34.9253 14.8085 34.9704 14.7571C35.0154 14.7057 35.0709 14.6645 35.1331 14.6363C35.1953 14.608 35.2628 14.5933 35.3312 14.5932C35.3401 14.5932 36.538 14.6713 36.547 14.6713C36.8997 14.6943 37.2336 14.8383 37.4924 15.079C37.7512 15.3197 37.9189 15.6424 37.9673 15.9926L38.1548 17.3329H41.2646L41.918 14.1315C41.9834 13.7943 41.963 13.4461 41.8586 13.119C41.7542 12.7918 41.5691 12.4961 41.3205 12.2591Z" fill="#FFB69F"/>
<path d="M52.0993 23.7454H43.201V30.5824H26.8004V23.7454H17.9021C17.6922 23.7452 17.4843 23.7864 17.2903 23.8667C17.0963 23.9469 16.9201 24.0647 16.7717 24.2132C16.6233 24.3616 16.5056 24.5379 16.4255 24.7319C16.3453 24.926 16.3042 25.1339 16.3044 25.3438V44.123H53.6969V25.3438C53.6972 25.1339 53.6561 24.926 53.5759 24.7319C53.4958 24.5379 53.3781 24.3616 53.2297 24.2132C53.0813 24.0647 52.9051 23.9469 52.7111 23.8667C52.5171 23.7864 52.3092 23.7452 52.0993 23.7454Z" fill="white"/>
<path d="M27.5986 17.3336C27.3867 17.3337 27.1836 17.4179 27.0338 17.5677C26.8841 17.7174 26.7999 17.9206 26.7998 18.1324V30.5828H43.2004V18.1324C43.2004 17.9206 43.1162 17.7174 42.9664 17.5677C42.8166 17.4179 42.6135 17.3337 42.4017 17.3336H27.5986Z" fill="white"/>
<path d="M41.3205 12.2591L35.8041 5.87695L28.0432 5.90258L30.2307 8.75414C30.3762 8.94324 30.4779 9.1623 30.5285 9.39549C30.579 9.62868 30.5772 9.87019 30.5231 10.1026C30.2323 11.3662 30.5934 13.2498 31.0699 14.3526C31.4501 15.2329 32.0635 17.9504 32.4087 19.5543C32.4907 19.9337 32.7163 20.2666 33.0381 20.4835C33.36 20.7003 33.7533 20.7843 34.1357 20.7179C34.5181 20.6514 34.86 20.4397 35.0898 20.127C35.3197 19.8142 35.4197 19.4247 35.369 19.0399L34.8552 15.1363C34.8464 15.0686 34.8521 14.9997 34.8719 14.9343C34.8918 14.8689 34.9253 14.8085 34.9704 14.7571C35.0154 14.7057 35.0709 14.6645 35.1331 14.6363C35.1953 14.608 35.2628 14.5933 35.3312 14.5932C35.3401 14.5932 36.538 14.6713 36.547 14.6713C36.8997 14.6943 37.2336 14.8383 37.4924 15.079C37.7512 15.3197 37.9189 15.6424 37.9673 15.9926L38.1548 17.3329H41.2646L41.918 14.1315C41.9834 13.7943 41.963 13.4461 41.8586 13.119C41.7542 12.7918 41.5691 12.4961 41.3205 12.2591Z" fill="#FFB69F"/>
<path d="M30.103 34.3832C30.3188 34.3832 30.4937 34.2083 30.4937 33.9926C30.4937 33.7768 30.3188 33.6019 30.103 33.6019C29.8873 33.6019 29.7124 33.7768 29.7124 33.9926C29.7124 34.2083 29.8873 34.3832 30.103 34.3832Z" fill="black"/>
<path d="M54.0868 25.3429C54.0862 24.8158 53.8765 24.3105 53.5038 23.9378C53.1311 23.5651 52.6258 23.3555 52.0987 23.3549H43.5904V22.4968C43.5904 22.3932 43.5493 22.2938 43.476 22.2206C43.4028 22.1473 43.3034 22.1062 43.1998 22.1062C43.0962 22.1062 42.9968 22.1473 42.9236 22.2206C42.8503 22.2938 42.8092 22.3932 42.8092 22.4968V30.1913H27.1906V18.1313C27.1907 18.0232 27.2337 17.9195 27.3101 17.843C27.3866 17.7666 27.4903 17.7236 27.5984 17.7235H31.5984C31.7329 18.3016 31.8756 18.9413 32.0246 19.636C32.1168 20.0645 32.355 20.4478 32.6984 20.7202C33.0418 20.9926 33.4692 21.1373 33.9075 21.1296H33.9278C34.1929 21.1223 34.4536 21.0594 34.6929 20.945C34.9323 20.8306 35.1449 20.6672 35.3171 20.4655C35.4893 20.2637 35.6171 20.028 35.6925 19.7736C35.7678 19.5193 35.7889 19.252 35.7543 18.989L35.5881 17.7233H42.4006C42.5087 17.7234 42.6124 17.7664 42.6888 17.8429C42.7652 17.9194 42.8082 18.023 42.8082 18.1312V19.3716C42.8082 19.4752 42.8494 19.5746 42.9227 19.6478C42.9959 19.7211 43.0953 19.7622 43.1989 19.7622C43.3025 19.7622 43.4018 19.7211 43.4751 19.6478C43.5483 19.5746 43.5895 19.4752 43.5895 19.3716V18.1313C43.5888 17.8162 43.4634 17.5141 43.2405 17.2913C43.0177 17.0685 42.7157 16.943 42.4006 16.9423H41.7415C42.0879 15.2443 42.2357 14.546 42.2989 14.1983C42.376 13.8017 42.3529 13.392 42.2317 13.0065C42.1105 12.621 41.8949 12.2718 41.6047 11.9907L36.0984 5.62178C36.0295 5.54565 35.9339 5.49897 35.8315 5.49143C35.7291 5.4839 35.6277 5.51608 35.5484 5.58131C35.5095 5.61483 35.4775 5.65569 35.4544 5.70157C35.4313 5.74745 35.4174 5.79743 35.4137 5.84867C35.4099 5.8999 35.4163 5.95138 35.4324 6.00014C35.4486 6.04891 35.4742 6.09402 35.5078 6.13288C35.5082 6.13288 35.5086 6.13304 35.5089 6.13333C35.5092 6.13363 35.5093 6.13402 35.5093 6.13444L41.0451 12.5376C41.2476 12.729 41.3986 12.9683 41.4841 13.2335C41.5695 13.4987 41.5868 13.7811 41.5342 14.0548L40.9453 16.9423H38.4936L38.3529 15.9391C38.2913 15.5004 38.0806 15.0963 37.7563 14.7944C37.432 14.4926 37.0138 14.3114 36.5718 14.2813C36.5265 14.2785 35.3765 14.2032 35.3312 14.2032C35.207 14.2035 35.0843 14.2302 34.9713 14.2817C34.8583 14.3331 34.7575 14.4081 34.6758 14.5016C34.594 14.595 34.5331 14.7049 34.4971 14.8237C34.4612 14.9426 34.4509 15.0677 34.4671 15.1908L34.9796 19.0908C35.0167 19.3752 34.9426 19.6628 34.7729 19.8939C34.6031 20.125 34.3507 20.2816 34.0682 20.3311C33.7858 20.3807 33.4952 20.3194 33.2569 20.1599C33.0186 20.0004 32.851 19.7552 32.789 19.4752C32.5554 18.3849 31.8671 15.2301 31.4265 14.1969C31.0934 13.3703 30.8904 12.4969 30.825 11.608C30.8214 11.5568 30.8077 11.5069 30.7848 11.4609C30.7619 11.415 30.7302 11.374 30.6914 11.3404C30.6527 11.3067 30.6077 11.281 30.559 11.2647C30.5104 11.2485 30.459 11.2419 30.4078 11.2455C30.3566 11.2491 30.3066 11.2628 30.2607 11.2857C30.2147 11.3086 30.1738 11.3403 30.1401 11.379C30.1065 11.4178 30.0808 11.4628 30.0645 11.5115C30.0482 11.5601 30.0417 11.6115 30.0453 11.6627C30.1154 12.6402 30.3395 13.6005 30.7093 14.508C30.939 15.0307 31.2784 16.3919 31.4125 16.9424H27.5984C27.2833 16.9431 26.9812 17.0686 26.7584 17.2915C26.5355 17.5143 26.41 17.8163 26.4093 18.1315V23.3551H17.9012C17.3742 23.3556 16.8689 23.5652 16.4961 23.9379C16.1234 24.3106 15.9137 24.8158 15.9131 25.3429V44.123C15.9131 44.2266 15.9542 44.326 16.0275 44.3992C16.1008 44.4725 16.2001 44.5137 16.3037 44.5137C16.4073 44.5137 16.5067 44.4725 16.5799 44.3992C16.6532 44.326 16.6943 44.2266 16.6943 44.123V34.3829H28.5406C28.6442 34.3829 28.7435 34.3417 28.8168 34.2685C28.8901 34.1952 28.9312 34.0959 28.9312 33.9923C28.9312 33.8887 28.8901 33.7893 28.8168 33.716C28.7435 33.6428 28.6442 33.6016 28.5406 33.6016H16.6943V25.3429C16.6947 25.0229 16.822 24.7162 17.0483 24.49C17.2745 24.2638 17.5813 24.1365 17.9012 24.1362H26.409V30.1913H25.0951C24.9915 30.1913 24.8922 30.2325 24.8189 30.3057C24.7456 30.379 24.7045 30.4783 24.7045 30.5819C24.7045 30.6855 24.7456 30.7849 24.8189 30.8582C24.8922 30.9314 24.9915 30.9726 25.0951 30.9726H44.9048C45.0084 30.9726 45.1078 30.9314 45.181 30.8582C45.2543 30.7849 45.2954 30.6855 45.2954 30.5819C45.2954 30.4783 45.2543 30.379 45.181 30.3057C45.1078 30.2325 45.0084 30.1913 44.9048 30.1913H43.5907V24.1362H52.0987C52.4187 24.1365 52.7254 24.2638 52.9516 24.49C53.1779 24.7162 53.3052 25.0229 53.3056 25.3429V33.6016H31.6656C31.562 33.6016 31.4626 33.6428 31.3894 33.716C31.3161 33.7893 31.275 33.8887 31.275 33.9923C31.275 34.0959 31.3161 34.1952 31.3894 34.2685C31.4626 34.3417 31.562 34.3829 31.6656 34.3829H53.3062V44.123C53.3062 44.2266 53.3474 44.326 53.4206 44.3992C53.4939 44.4725 53.5932 44.5137 53.6968 44.5137C53.8004 44.5137 53.8998 44.4725 53.973 44.3992C54.0463 44.326 54.0875 44.2266 54.0875 44.123L54.0868 25.3429ZM35.3232 14.9844C35.3501 14.9844 36.4951 15.0594 36.5218 15.0612C36.7844 15.0787 37.0329 15.1862 37.2256 15.3655C37.4182 15.5447 37.5433 15.7849 37.5796 16.0455L37.7046 16.9426H35.4859C35.485 16.9352 35.2421 15.089 35.2421 15.0816C35.2407 15.0787 35.2402 15.0755 35.2406 15.0723C35.2416 15.0501 35.2505 15.0291 35.2656 15.013C35.2808 14.9969 35.3012 14.9868 35.3232 14.9844Z" fill="black"/>
<path d="M43.2004 21.3253C43.4162 21.3253 43.5911 21.1504 43.5911 20.9347C43.5911 20.719 43.4162 20.5441 43.2004 20.5441C42.9847 20.5441 42.8098 20.719 42.8098 20.9347C42.8098 21.1504 42.9847 21.3253 43.2004 21.3253Z" fill="black"/>
<path d="M30.1446 9.99904C30.1285 10.0746 30.1351 10.1532 30.1636 10.225C30.1921 10.2968 30.2413 10.3585 30.3048 10.4024C30.3684 10.4462 30.4436 10.4702 30.5208 10.4714C30.5981 10.4725 30.6739 10.4507 30.7388 10.4088C30.8036 10.3668 30.8546 10.3066 30.8852 10.2357C30.9158 10.1648 30.9248 10.0864 30.9108 10.0104C30.8969 9.93442 30.8608 9.86427 30.807 9.80882C30.7532 9.75338 30.6842 9.71512 30.6087 9.69889C30.5075 9.67842 30.4023 9.69836 30.3155 9.75445C30.2288 9.81054 30.1675 9.89832 30.1446 9.99904Z" fill="black"/>
<path d="M29.8234 8.86551C29.8534 8.90938 29.892 8.94667 29.9368 8.97511C29.9817 9.00355 30.0319 9.02254 30.0843 9.03092C30.1368 9.0393 30.1904 9.03689 30.2419 9.02384C30.2934 9.0108 30.3417 8.98738 30.3838 8.95504C30.426 8.92269 30.4611 8.88209 30.487 8.83571C30.5129 8.78934 30.5291 8.73817 30.5345 8.68533C30.54 8.63249 30.5346 8.57909 30.5187 8.5284C30.5028 8.47771 30.4768 8.43079 30.4421 8.39051L28.3531 5.66395C28.2884 5.58383 28.1954 5.53167 28.0932 5.51829C27.9911 5.50491 27.8878 5.53133 27.8046 5.59207C27.7639 5.62332 27.7296 5.66231 27.704 5.70681C27.6783 5.75131 27.6616 5.80043 27.6549 5.85138C27.6482 5.90232 27.6517 5.95409 27.665 6.0037C27.6784 6.05331 27.7014 6.09981 27.7328 6.14051L29.8234 8.86551Z" fill="black"/>
<path d="M51.25 42.9424C51.1464 42.9424 51.047 42.9013 50.9738 42.828C50.9005 42.7548 50.8594 42.6554 50.8594 42.5518V42.4327C50.8594 42.3291 50.9005 42.2298 50.9738 42.1565C51.047 42.0833 51.1464 42.0421 51.25 42.0421C51.3536 42.0421 51.453 42.0833 51.5262 42.1565C51.5995 42.2298 51.6406 42.3291 51.6406 42.4327V42.5518C51.6406 42.6554 51.5995 42.7548 51.5262 42.828C51.453 42.9013 51.3536 42.9424 51.25 42.9424ZM51.25 41.2609C51.1464 41.2609 51.047 41.2197 50.9738 41.1465C50.9005 41.0732 50.8594 40.9738 50.8594 40.8702V36.5734H21.5625C21.4589 36.5734 21.3595 36.5322 21.2863 36.459C21.213 36.3857 21.1719 36.2863 21.1719 36.1827C21.1719 36.0791 21.213 35.9798 21.2863 35.9065C21.3595 35.8333 21.4589 35.7921 21.5625 35.7921H51.25C51.3536 35.7921 51.453 35.8333 51.5262 35.9065C51.5995 35.9798 51.6406 36.0791 51.6406 36.1827V40.8702C51.6406 40.9738 51.5995 41.0732 51.5262 41.1465C51.453 41.2197 51.3536 41.2609 51.25 41.2609Z" fill="#F0C020"/>
<path d="M51.25 30.973C51.1464 30.973 51.047 30.9319 50.9738 30.8586C50.9005 30.7854 50.8594 30.686 50.8594 30.5824V30.2129C50.8594 30.1093 50.9005 30.0099 50.9738 29.9367C51.047 29.8634 51.1464 29.8223 51.25 29.8223C51.3536 29.8223 51.453 29.8634 51.5262 29.9367C51.5995 30.0099 51.6406 30.1093 51.6406 30.2129V30.5824C51.6406 30.686 51.5995 30.7854 51.5262 30.8586C51.453 30.9319 51.3536 30.973 51.25 30.973ZM51.25 29.041C51.1464 29.041 51.047 28.9999 50.9738 28.9266C50.9005 28.8533 50.8594 28.754 50.8594 28.6504V26.0723H45.7812C45.6776 26.0723 45.5783 26.0311 45.505 25.9579C45.4318 25.8846 45.3906 25.7852 45.3906 25.6816C45.3906 25.578 45.4318 25.4787 45.505 25.4054C45.5783 25.3322 45.6776 25.291 45.7812 25.291H51.25C51.3536 25.291 51.453 25.3322 51.5262 25.4054C51.5995 25.4787 51.6406 25.578 51.6406 25.6816V28.6504C51.6406 28.754 51.5995 28.8533 51.5262 28.9266C51.453 28.9999 51.3536 29.041 51.25 29.041Z" fill="#F0C020"/>
<path d="M37.8409 22.6859C38.0171 22.6867 38.1606 22.5447 38.1614 22.3687C38.1624 22.1924 38.0205 22.049 37.8442 22.0482L34.6452 22.0139L33.363 22C33.187 21.9982 33.0425 22.1393 33.0407 22.3155C33.0388 22.4916 33.1802 22.6358 33.3562 22.6377L34.6384 22.6516C35.4012 22.6599 36.0528 23.2042 36.1969 23.9535L33.3423 23.9228H33.3387C33.1627 23.922 33.0193 24.064 33.0182 24.24C33.0174 24.416 33.1594 24.5597 33.3354 24.5605L36.1898 24.5912C36.0304 25.3302 35.3774 25.8583 34.6214 25.8593C34.6158 25.8593 34.6097 25.8593 34.6039 25.8593L33.3217 25.8456H33.3182C33.1885 25.8458 33.0718 25.9247 33.0232 26.0449C32.9747 26.1653 33.0037 26.3031 33.0969 26.3934L36.2695 29.4562C36.3511 29.5368 36.4699 29.5673 36.5801 29.5361C36.6905 29.5048 36.7756 29.4168 36.803 29.3053C36.8304 29.1938 36.7957 29.0764 36.7123 28.9977L34.1165 26.4914L34.5973 26.4968H34.6218C35.7267 26.4951 36.666 25.6895 36.8364 24.5979L37.8168 24.6084H37.8204C37.9964 24.6093 38.1398 24.4673 38.1409 24.2913C38.1417 24.115 37.9997 23.9716 37.8237 23.9708L36.8435 23.9602C36.781 23.4796 36.5633 23.0325 36.2232 22.6873C36.2168 22.6807 36.2102 22.6746 36.2037 22.6682L37.8374 22.6856L37.8409 22.6859Z" fill="#491369" stroke="#491369" stroke-width="0.5"/>
<path d="M70 44.0879H0" stroke="black" stroke-miterlimit="10"/>
</svg>
