<svg width="70" height="47" viewBox="0 0 70 47" fill="none" xmlns="http://www.w3.org/2000/svg">
<path opacity="0.2" fill-rule="evenodd" clip-rule="evenodd" d="M61.95 26.9289C61.976 33.8978 59.2864 40.6035 54.45 45.6276H15.55C12.4869 42.4531 10.2509 38.5764 9.03803 34.3377C7.82518 30.099 7.67262 25.6279 8.59373 21.3166C9.51483 17.0053 11.4815 12.9856 14.321 9.61027C17.1606 6.23494 20.7863 3.60712 24.8801 1.95738C28.9739 0.307645 33.4105 -0.313581 37.8008 0.148212C42.191 0.610005 46.4007 2.14071 50.0604 4.606C53.7201 7.07129 56.7179 10.3958 58.7909 14.2879C60.8639 18.1799 61.9487 22.5206 61.95 26.9289Z" fill="#491369"/>
<path d="M70 46H0" stroke="#1A1A1A" stroke-miterlimit="10"/>
<rect x="24.7949" y="9.76196" width="17.5218" height="31.5736" rx="1" fill="white"/>
<path d="M36.5156 34.1279L40.0356 31.1733L41.2676 28.9968H38.8623C38.4724 28.996 38.0965 28.8488 37.8063 28.5833L37.2623 29.5409L36.5156 34.1279Z" fill="#FFCD00"/>
<path d="M49.1013 15.1534L46.328 13.521L43.112 19.2016L41.528 21.9984L39.416 25.7311H43.112L44.344 23.5546L46.808 19.2016L49.1013 15.1534Z" fill="#FFCD00"/>
<path d="M47.6615 11.1611L46.3281 13.5171L49.1015 15.1495L50.4348 12.7935C50.5398 12.6077 50.608 12.4026 50.6354 12.1899C50.6628 11.9773 50.6488 11.7612 50.5943 11.554C50.5399 11.3469 50.4459 11.1527 50.3179 10.9826C50.1898 10.8125 50.0302 10.6697 49.8481 10.5626C49.4804 10.3461 49.0434 10.2875 48.6333 10.3998C48.2232 10.512 47.8736 10.7859 47.6615 11.1611Z" fill="#A7A9AC"/>
<rect x="37.6543" y="24.2732" width="1.13778" height="1.16079" rx="0.568889" fill="#491369" fill-opacity="0.4"/>
<rect x="37.6543" y="28.9163" width="1.13778" height="1.16079" rx="0.568889" fill="#491369" fill-opacity="0.4"/>
<path d="M43.609 19.6304H42.0522C41.3956 19.6304 40.7506 19.807 40.1824 20.1426C39.6141 20.4781 39.1426 20.9605 38.8154 21.5413L35.5183 27.395C35.4486 27.519 35.4036 27.6557 35.3857 27.7975C35.3678 27.9392 35.3775 28.0832 35.4141 28.2211C35.4508 28.3591 35.5137 28.4883 35.5993 28.6014C35.6849 28.7145 35.7915 28.8094 35.913 28.8805C36.2504 29.0794 36.635 29.1796 37.0245 29.17C37.414 29.1604 37.7934 29.0414 38.121 28.826C37.891 28.5384 37.7632 28.1797 37.7583 27.8085C37.7766 27.3627 37.9639 26.9416 38.2807 26.6339C38.5975 26.3263 39.0191 26.1563 39.4565 26.1598H39.913L42.025 22.4272L43.609 19.6304Z" fill="#FFBCAB"/>
<path d="M47.201 19.6304H48.4223C48.8915 19.6303 49.3549 19.7355 49.7798 19.9385C50.2047 20.1416 50.5806 20.4374 50.881 20.8051L51.6276 21.7203C51.928 22.0881 52.3039 22.3839 52.7288 22.5869C53.1537 22.7899 53.6171 22.8952 54.0863 22.8951H55.7876V30.5128H49.8618C49.1993 30.5129 48.5459 30.3555 47.9535 30.053L47.6218 29.8844C47.0293 29.5819 46.376 29.4245 45.7135 29.4246H39.2543C38.8644 29.4238 38.4885 29.2766 38.1983 29.011C38.171 28.9923 38.146 28.9704 38.1236 28.9457C38.0853 28.9085 38.0497 28.8685 38.017 28.826C37.787 28.5384 37.6591 28.1797 37.6543 27.8085C37.6725 27.3627 37.8598 26.9416 38.1767 26.6339C38.4935 26.3263 38.9151 26.1563 39.3524 26.1598H45.121C45.2687 26.1589 45.4146 26.1267 45.5497 26.0655C45.6847 26.0043 45.8058 25.9153 45.9056 25.8041C46.0053 25.6929 46.0815 25.5619 46.1293 25.4193C46.1771 25.2767 46.1955 25.1255 46.1834 24.9753C46.1501 24.6975 46.0169 24.4421 45.8095 24.2588C45.6022 24.0756 45.3355 23.9774 45.0612 23.9834H44.737L47.201 19.6304Z" fill="#FFB69F"/>
<path d="M44.9578 26.4499C45.1055 26.4489 45.2515 26.4168 45.3865 26.3556C45.5215 26.2944 45.6427 26.2054 45.7424 26.0942C45.8421 25.983 45.9183 25.852 45.9661 25.7094C46.0139 25.5668 46.0323 25.4156 46.0202 25.2654C45.9869 24.9876 45.8537 24.7322 45.6464 24.5489C45.439 24.3657 45.1723 24.2675 44.8981 24.2735H44.5738L43.3418 26.4499H44.9578Z" fill="#FF9478"/>
<path d="M55.4667 29.8588H49.5408C48.9612 29.8582 48.3896 29.7206 47.8709 29.4567L47.5392 29.2875C46.8723 28.9484 46.1376 28.7715 45.3925 28.7705H38.9333C38.6741 28.769 38.4245 28.6707 38.2315 28.4941C38.1884 28.4572 38.1481 28.417 38.1109 28.3739C37.9561 28.1818 37.87 27.9418 37.8667 27.6932C37.868 27.5573 37.8959 27.4232 37.9486 27.2984C38.0014 27.1737 38.0779 27.061 38.1739 26.9668C38.4001 26.7315 38.7085 26.5975 39.0315 26.594H44.8C45.0091 26.5956 45.2163 26.5543 45.4094 26.4726C45.6025 26.3909 45.7776 26.2705 45.9243 26.1185C46.0921 25.9511 46.2214 25.7477 46.3026 25.5231C46.3839 25.2984 46.4152 25.0582 46.3941 24.8197C46.362 24.5026 46.2401 24.202 46.0433 23.9544C45.8465 23.7069 45.5833 23.5231 45.2859 23.4256L47.1893 20.0646H48.1013C48.4924 20.0642 48.8787 20.1518 49.2327 20.3211C49.5868 20.4903 49.8999 20.7372 50.1499 21.044L50.8965 21.9592C51.2465 22.3888 51.6851 22.7343 52.181 22.9711C52.6768 23.2079 53.2178 23.3302 53.7653 23.3293H55.4667C55.6081 23.3293 55.7438 23.272 55.8438 23.1699C55.9438 23.0679 56 22.9295 56 22.7852C56 22.6409 55.9438 22.5025 55.8438 22.4004C55.7438 22.2984 55.6081 22.2411 55.4667 22.2411H53.7653C53.3743 22.2414 52.988 22.1539 52.6339 21.9846C52.2799 21.8153 51.9667 21.5685 51.7168 21.2616L50.9701 20.3464C50.6201 19.9169 50.1816 19.5714 49.6857 19.3346C49.1898 19.0977 48.6488 18.9754 48.1013 18.9763H47.8053L50.9664 13.3855C51.2448 12.8858 51.3183 12.2941 51.1707 11.7395C51.0231 11.1848 50.6664 10.7122 50.1785 10.4249C49.6907 10.1375 49.1112 10.0586 48.5666 10.2055C48.0219 10.3524 47.5564 10.7132 47.2715 11.209L43.2 18.405V11.9027C43.1992 11.1815 42.9179 10.49 42.418 9.97993C41.9181 9.46991 41.2403 9.18299 40.5333 9.18213H26.6667C25.9597 9.18299 25.2819 9.46991 24.782 9.97993C24.2821 10.49 24.0008 11.1815 24 11.9027V39.1089C24.0008 39.8301 24.2821 40.5216 24.782 41.0317C25.2819 41.5417 25.9597 41.8286 26.6667 41.8295H40.5333C41.2403 41.8286 41.9181 41.5417 42.418 41.0317C42.9179 40.5216 43.1992 39.8301 43.2 39.1089V29.8588H45.3925C45.9721 29.8594 46.5437 29.997 47.0624 30.2609L47.3941 30.4301C48.061 30.7691 48.7957 30.9461 49.5408 30.947H55.4667C55.6081 30.947 55.7438 30.8897 55.8438 30.7877C55.9438 30.6856 56 30.5472 56 30.4029C56 30.2586 55.9438 30.1202 55.8438 30.0182C55.7438 29.9161 55.6081 29.8588 55.4667 29.8588ZM40 19.3077C39.1281 19.6743 38.3994 20.3247 37.9275 21.1577L34.6315 27.0098C34.5264 27.1957 34.4583 27.4009 34.4311 27.6137C34.4038 27.8265 34.418 28.0427 34.4727 28.2499C34.5274 28.4571 34.6217 28.6513 34.7501 28.8213C34.8784 28.9913 35.0384 29.1338 35.2208 29.2407C35.6234 29.4792 36.0806 29.605 36.5461 29.6052C36.6559 29.6043 36.7654 29.5963 36.8741 29.5813V29.5856C36.8416 29.6421 36.8197 29.7043 36.8096 29.769L36.0629 34.3565C36.0453 34.4657 36.0606 34.5778 36.107 34.6778C36.1534 34.7778 36.2285 34.861 36.3224 34.9164C36.4164 34.9717 36.5246 34.9965 36.6327 34.9875C36.7408 34.9784 36.8436 34.936 36.9275 34.8658L40 32.2856V38.5647H27.2V12.4469H28.8912C29.0019 12.7649 29.2063 13.0402 29.4765 13.2351C29.7466 13.4299 30.0692 13.5347 30.4 13.5351H36.8C37.1308 13.5347 37.4534 13.4299 37.7235 13.2351C37.9937 13.0402 38.1981 12.7649 38.3088 12.4469H40V19.3077ZM40.4144 29.8588L39.6933 31.1337L37.3467 33.1039L37.8448 30.046L38.0651 29.6575C38.337 29.7872 38.6331 29.8558 38.9333 29.8588H40.4144ZM37.416 26.2012C37.2204 26.3973 37.0652 26.6312 36.9595 26.8892C36.8537 27.1473 36.7995 27.4243 36.8 27.7041C36.8042 27.9616 36.853 28.2163 36.944 28.4566C36.5421 28.5665 36.1139 28.5095 35.7531 28.2982C35.6305 28.2264 35.5409 28.108 35.5039 27.9688C35.4669 27.8296 35.4855 27.6812 35.5557 27.5561L38.8528 21.7024C39.1337 21.2053 39.5379 20.7923 40.0246 20.5048C40.5114 20.2174 41.0637 20.0655 41.6261 20.0646H42.2592L40.7195 22.7852L39.1797 25.5058H39.0315C38.424 25.5101 37.843 25.7602 37.416 26.2012ZM44.7403 24.4176C44.8812 24.4117 45.0193 24.4587 45.1285 24.5496C45.2378 24.6405 45.3106 24.7691 45.3333 24.9111C45.3408 24.9913 45.3302 25.0721 45.3025 25.1475C45.2748 25.2229 45.2306 25.2909 45.1733 25.3464C45.125 25.3975 45.067 25.438 45.0028 25.4655C44.9386 25.4929 44.8696 25.5066 44.8 25.5058H44.1067L44.7227 24.4176H44.7403ZM42.8763 25.5058H40.4123L46.5952 14.5831L48.4443 15.6713L42.8763 25.5058ZM48.1952 11.7531C48.3377 11.5052 48.5704 11.3248 48.8428 11.2514C49.1151 11.1779 49.4048 11.2174 49.6487 11.361C49.8927 11.5047 50.071 11.741 50.1448 12.0184C50.2186 12.2957 50.1819 12.5915 50.0427 12.8414L48.976 14.7262L47.1285 13.6379L48.1952 11.7531ZM42.1333 39.1089C42.1333 39.5418 41.9648 39.957 41.6647 40.2631C41.3646 40.5692 40.9577 40.7412 40.5333 40.7412H26.6667C26.2423 40.7412 25.8354 40.5692 25.5353 40.2631C25.2352 39.957 25.0667 39.5418 25.0667 39.1089V11.9027C25.0667 11.4698 25.2352 11.0546 25.5353 10.7485C25.8354 10.4424 26.2423 10.2704 26.6667 10.2704H40.5333C40.9577 10.2704 41.3646 10.4424 41.6647 10.7485C41.9648 11.0546 42.1333 11.4698 42.1333 11.9027V18.9763H41.6272C41.4397 18.9764 41.2525 18.9891 41.0667 19.0144V12.4469C41.0667 12.1582 40.9543 11.8814 40.7542 11.6774C40.5542 11.4733 40.2829 11.3586 40 11.3586H37.8667C37.7252 11.3586 37.5896 11.4159 37.4895 11.518C37.3895 11.62 37.3333 11.7584 37.3333 11.9027C37.3333 12.0471 37.2771 12.1855 37.1771 12.2875C37.0771 12.3895 36.9414 12.4469 36.8 12.4469H30.4C30.2586 12.4469 30.1229 12.3895 30.0229 12.2875C29.9229 12.1855 29.8667 12.0471 29.8667 11.9027C29.8667 11.7584 29.8105 11.62 29.7105 11.518C29.6104 11.4159 29.4748 11.3586 29.3333 11.3586H27.2C26.9171 11.3586 26.6458 11.4733 26.4458 11.6774C26.2457 11.8814 26.1333 12.1582 26.1333 12.4469V38.5647C26.1333 38.8534 26.2457 39.1302 26.4458 39.3342C26.6458 39.5383 26.9171 39.653 27.2 39.653H40C40.2829 39.653 40.5542 39.5383 40.7542 39.3342C40.9543 39.1302 41.0667 38.8534 41.0667 38.5647V30.947C41.0643 30.9311 41.0611 30.9153 41.0571 30.8997L41.6464 29.8588H42.1333V39.1089Z" fill="#1A1A1A"/>
<rect x="28.5508" y="14.9866" width="6.82667" height="1.16079" rx="0.580397" fill="#491369" fill-opacity="0.4"/>
<rect x="37.6543" y="14.9866" width="1.13778" height="1.16079" rx="0.568889" fill="#491369" fill-opacity="0.4"/>
<rect x="28.5508" y="19.6294" width="6.82667" height="1.16079" rx="0.580397" fill="#491369" fill-opacity="0.4"/>
<rect x="37.6543" y="19.6294" width="1.13778" height="1.16079" rx="0.568889" fill="#491369" fill-opacity="0.4"/>
<rect x="28.5508" y="24.2722" width="6.82667" height="1.16079" rx="0.580397" fill="#491369" fill-opacity="0.4"/>
<rect x="28.5508" y="28.9153" width="6.82667" height="1.16079" rx="0.580397" fill="#491369" fill-opacity="0.4"/>
<rect x="28.5508" y="32.3982" width="5.68889" height="4.64318" rx="0.2" fill="#491369"/>
<path d="M33.0815 33.085L30.7069 35.585L29.7029 34.528C29.6379 34.462 29.5509 34.4254 29.4606 34.4262C29.3703 34.4271 29.2839 34.4652 29.22 34.5324C29.1562 34.5997 29.1199 34.6906 29.1192 34.7857C29.1184 34.8808 29.1531 34.9724 29.2158 35.0408L30.4634 36.3542C30.528 36.4222 30.6156 36.4604 30.7069 36.4604C30.7983 36.4604 30.8859 36.4222 30.9505 36.3542L33.5683 33.5982C33.6005 33.5646 33.6261 33.5246 33.6436 33.4806C33.6611 33.4365 33.6701 33.3893 33.6703 33.3415C33.6704 33.2937 33.6615 33.2464 33.6442 33.2023C33.6269 33.1582 33.6015 33.118 33.5694 33.0843C33.5373 33.0505 33.4992 33.0237 33.4573 33.0055C33.4154 32.9873 33.3705 32.9779 33.3251 32.978C33.2797 32.9781 33.2348 32.9877 33.193 33.0061C33.1511 33.0245 33.1132 33.0514 33.0812 33.0853L33.0815 33.085Z" fill="white"/>
</svg>
